<mxfile host="app.diagrams.net" agent="Mozilla/5.0 (X11; Ubuntu; Linux x86_64; rv:133.0) Gecko/20100101 Firefox/133.0" version="25.0.3">
  <diagram name="Page-1" id="35hIiQRSQwdJWSXeoAwb">
    <mxGraphModel dx="1195" dy="573" grid="1" gridSize="10" guides="1" tooltips="1" connect="1" arrows="1" fold="1" page="1" pageScale="1" pageWidth="850" pageHeight="1100" math="0" shadow="0">
      <root>
        <mxCell id="0" />
        <mxCell id="1" parent="0" />
        <mxCell id="cSgg9kXEpo_TXD9J1GGA-2" value="Jacob" style="shape=umlActor;verticalLabelPosition=bottom;verticalAlign=top;html=1;outlineConnect=0;" vertex="1" parent="1">
          <mxGeometry x="410" y="20" width="30" height="60" as="geometry" />
        </mxCell>
        <mxCell id="cSgg9kXEpo_TXD9J1GGA-3" value="Michael" style="shape=umlActor;verticalLabelPosition=bottom;verticalAlign=top;html=1;outlineConnect=0;" vertex="1" parent="1">
          <mxGeometry x="460" y="20" width="30" height="60" as="geometry" />
        </mxCell>
        <mxCell id="cSgg9kXEpo_TXD9J1GGA-4" value="Dew" style="shape=umlActor;verticalLabelPosition=bottom;verticalAlign=top;html=1;outlineConnect=0;" vertex="1" parent="1">
          <mxGeometry x="360" y="20" width="30" height="60" as="geometry" />
        </mxCell>
        <mxCell id="cSgg9kXEpo_TXD9J1GGA-9" style="edgeStyle=orthogonalEdgeStyle;rounded=0;orthogonalLoop=1;jettySize=auto;html=1;" edge="1" parent="1" source="cSgg9kXEpo_TXD9J1GGA-8">
          <mxGeometry relative="1" as="geometry">
            <mxPoint x="145" y="430" as="targetPoint" />
          </mxGeometry>
        </mxCell>
        <mxCell id="cSgg9kXEpo_TXD9J1GGA-10" value="execve ( pass in arguments )" style="edgeLabel;html=1;align=center;verticalAlign=middle;resizable=0;points=[];" vertex="1" connectable="0" parent="cSgg9kXEpo_TXD9J1GGA-9">
          <mxGeometry x="-0.1946" relative="1" as="geometry">
            <mxPoint as="offset" />
          </mxGeometry>
        </mxCell>
        <mxCell id="cSgg9kXEpo_TXD9J1GGA-8" value="Main Function: Requests Input" style="rounded=0;whiteSpace=wrap;html=1;" vertex="1" parent="1">
          <mxGeometry x="80" y="270" width="130" height="50" as="geometry" />
        </mxCell>
        <mxCell id="cSgg9kXEpo_TXD9J1GGA-13" style="edgeStyle=orthogonalEdgeStyle;rounded=0;orthogonalLoop=1;jettySize=auto;html=1;" edge="1" parent="1" source="cSgg9kXEpo_TXD9J1GGA-12">
          <mxGeometry relative="1" as="geometry">
            <mxPoint x="270" y="290" as="targetPoint" />
          </mxGeometry>
        </mxCell>
        <mxCell id="cSgg9kXEpo_TXD9J1GGA-14" value="execve" style="edgeLabel;html=1;align=center;verticalAlign=middle;resizable=0;points=[];" vertex="1" connectable="0" parent="cSgg9kXEpo_TXD9J1GGA-13">
          <mxGeometry x="0.3814" y="-1" relative="1" as="geometry">
            <mxPoint as="offset" />
          </mxGeometry>
        </mxCell>
        <mxCell id="cSgg9kXEpo_TXD9J1GGA-12" value="ls" style="rounded=0;whiteSpace=wrap;html=1;" vertex="1" parent="1">
          <mxGeometry x="85" y="440" width="120" height="60" as="geometry" />
        </mxCell>
      </root>
    </mxGraphModel>
  </diagram>
</mxfile>
